<?xml version="1.0"?>
<svg xmlns="http://www.w3.org/2000/svg" id="Capa_1" enable-background="new 0 0 512 512" height="512px" viewBox="0 0 512 512" width="512px" class=""><g><g><path d="m151 345.987c53.699.901 86.1-22.2 105-46.5 37.416 49.356 91.404 43.676 119.099 46.5 75-.601 136.901-62.1 136.901-137.1v-27.9c0-8.401-6.599-15-15-15s-15 6.599-15 15c0 24.901-20.099 45-45 45h-9c-10.201 0-20.099-3.6-28.2-9.901l-43.301-33.9c-12.9-10.499-29.399-16.199-46.199-16.199-26.7 0-44.099 13.5-54.3 23.699-10.201-10.499-27.001-23.699-54.3-23.699-16.8 0-33.3 5.7-46.199 16.199l-42.301 33.9c-8.101 6.301-17.999 9.901-28.2 9.901h-9c-24.901 0-46-20.099-46-45 0-8.401-6.599-15-15-15s-15 6.599-15 15v22.8c0 91.8 59.801 141.001 151 142.2z" data-original="#000000" class="active-path" data-old_color="#000000" fill="#E5E4E4"/></g></g> </svg>
